<svg xmlns="http://www.w3.org/2000/svg" width="50" height="57.176" viewBox="0 0 50 57.176">
  <path id="Icon_ionic-ios-arrow-down" data-name="Icon ionic-ios-arrow-down" d="M31.2,31.217,50.1,12.3a3.558,3.558,0,0,1,5.047,0,3.6,3.6,0,0,1,0,5.061L33.728,38.794a3.567,3.567,0,0,1-4.927.1L7.23,17.372a3.574,3.574,0,1,1,5.047-5.061Z" transform="translate(-6.188 -11.247)" fill="#5e72eb"/>
  <path id="Icon_ionic-ios-arrow-down-2" data-name="Icon ionic-ios-arrow-down" d="M31.2,31.217,50.1,12.3a3.558,3.558,0,0,1,5.047,0,3.6,3.6,0,0,1,0,5.061L33.728,38.794a3.567,3.567,0,0,1-4.927.1L7.23,17.372a3.574,3.574,0,1,1,5.047-5.061Z" transform="translate(-6.188 17.342)" fill="#5e72eb"/>
</svg>