<?xml version="1.0" encoding="UTF-8"?>
<svg xmlns="http://www.w3.org/2000/svg" xmlns:xlink="http://www.w3.org/1999/xlink" viewBox="0 0 80 80" width="80px" height="80px">
<g id="surface11978493">
<path style=" stroke:none;fill-rule:nonzero;fill:rgb(36.862746%,44.705883%,92.156863%);fill-opacity:1;" d="M 40 8 C 22.328125 8 8 22.328125 8 40 C 8 54.996094 18.324219 67.542969 32.246094 71.011719 C 32.097656 70.582031 32 70.078125 32 69.457031 L 32 63.988281 C 30.703125 63.988281 28.523438 63.988281 27.980469 63.988281 C 25.789062 63.988281 23.84375 63.046875 22.898438 61.296875 C 21.851562 59.355469 21.667969 56.382812 19.070312 54.5625 C 18.300781 53.957031 18.886719 53.265625 19.777344 53.359375 C 21.414062 53.824219 22.777344 54.949219 24.054688 56.617188 C 25.332031 58.289062 25.929688 58.667969 28.3125 58.667969 C 29.464844 58.667969 31.195312 58.601562 32.820312 58.347656 C 33.695312 56.125 35.207031 54.078125 37.054688 53.113281 C 26.398438 52.019531 21.316406 46.71875 21.316406 39.519531 C 21.316406 36.421875 22.632812 33.425781 24.878906 30.898438 C 24.140625 28.390625 23.214844 23.28125 25.160156 21.332031 C 29.953125 21.332031 32.851562 24.441406 33.550781 25.28125 C 35.9375 24.464844 38.5625 24 41.320312 24 C 44.082031 24 46.71875 24.464844 49.113281 25.289062 C 49.800781 24.453125 52.703125 21.332031 57.507812 21.332031 C 59.457031 23.28125 58.523438 28.414062 57.777344 30.917969 C 60.007812 33.4375 61.320312 36.425781 61.320312 39.519531 C 61.320312 46.710938 56.242188 52.011719 45.601562 53.113281 C 48.53125 54.640625 50.667969 58.933594 50.667969 62.167969 L 50.667969 69.457031 C 50.667969 69.734375 50.605469 69.9375 50.574219 70.171875 C 63.042969 65.800781 72 53.960938 72 40 C 72 22.328125 57.671875 8 40 8 Z M 40 8 "/>
</g>
</svg>
