<?xml version="1.0" encoding="UTF-8"?>
<svg xmlns="http://www.w3.org/2000/svg" xmlns:xlink="http://www.w3.org/1999/xlink" viewBox="0 0 80 80" width="80px" height="80px">
<g id="surface12031936">
<path style=" stroke:none;fill-rule:nonzero;fill:rgb(36.862746%,44.705883%,92.156863%);fill-opacity:1;" d="M 26.667969 10 C 17.476562 10 10 17.476562 10 26.667969 L 10 53.332031 C 10 62.523438 17.476562 70 26.667969 70 L 53.332031 70 C 62.523438 70 70 62.523438 70 53.332031 L 70 26.667969 C 70 17.476562 62.523438 10 53.332031 10 Z M 26.667969 16.667969 L 53.332031 16.667969 C 58.847656 16.667969 63.332031 21.152344 63.332031 26.667969 L 63.332031 53.332031 C 63.332031 58.847656 58.847656 63.332031 53.332031 63.332031 L 26.667969 63.332031 C 21.152344 63.332031 16.667969 58.847656 16.667969 53.332031 L 16.667969 26.667969 C 16.667969 21.152344 21.152344 16.667969 26.667969 16.667969 Z M 56.667969 20 C 54.824219 20 53.332031 21.492188 53.332031 23.332031 C 53.332031 25.175781 54.824219 26.667969 56.667969 26.667969 C 58.507812 26.667969 60 25.175781 60 23.332031 C 60 21.492188 58.507812 20 56.667969 20 Z M 40 23.332031 C 30.808594 23.332031 23.332031 30.808594 23.332031 40 C 23.332031 49.191406 30.808594 56.667969 40 56.667969 C 49.191406 56.667969 56.667969 49.191406 56.667969 40 C 56.667969 30.808594 49.191406 23.332031 40 23.332031 Z M 40 30 C 45.511719 30 50 34.488281 50 40 C 50 45.511719 45.511719 50 40 50 C 34.488281 50 30 45.511719 30 40 C 30 34.488281 34.488281 30 40 30 Z M 40 30 "/>
</g>
</svg>
