<?xml version="1.0" encoding="UTF-8"?>
<svg xmlns="http://www.w3.org/2000/svg" xmlns:xlink="http://www.w3.org/1999/xlink" viewBox="0 0 80 80" width="80px" height="80px">
<g id="surface20320554">
<path style=" stroke:none;fill-rule:nonzero;fill:rgb(36.862746%,44.705883%,92.156863%);fill-opacity:1;" d="M 74.835938 56.125 C 65.550781 54.59375 61.304688 44.976562 61.167969 44.664062 C 61.148438 44.605469 61.105469 44.507812 61.082031 44.449219 C 60.800781 43.886719 60.519531 43.09375 60.757812 42.53125 C 61.164062 41.570312 63.09375 40.957031 64.25 40.585938 C 64.65625 40.457031 65.042969 40.335938 65.34375 40.21875 C 68.148438 39.105469 69.550781 37.65625 69.519531 35.894531 C 69.492188 34.476562 68.40625 33.175781 66.804688 32.613281 C 66.25 32.375 65.613281 32.257812 64.96875 32.257812 C 64.53125 32.257812 63.867188 32.320312 63.230469 32.613281 C 62.164062 33.113281 61.226562 33.382812 60.554688 33.414062 C 60.414062 33.40625 60.289062 33.394531 60.179688 33.375 L 60.25 32.273438 C 60.5625 27.300781 60.957031 21.101562 59.273438 17.332031 C 54.3125 6.226562 43.800781 5.363281 40.695312 5.363281 L 39.28125 5.375 C 36.179688 5.375 25.6875 6.238281 20.738281 17.335938 C 19.054688 21.105469 19.445312 27.300781 19.761719 32.28125 L 19.773438 32.46875 C 19.792969 32.773438 19.8125 33.082031 19.832031 33.375 C 19.136719 33.5 17.78125 33.269531 16.375 32.613281 C 14.460938 31.71875 11.019531 32.898438 10.542969 35.398438 C 10.332031 36.507812 10.585938 38.605469 14.664062 40.210938 C 14.96875 40.335938 15.351562 40.457031 15.761719 40.585938 C 16.914062 40.957031 18.84375 41.5625 19.25 42.53125 C 19.488281 43.09375 19.207031 43.886719 18.875 44.570312 C 18.699219 44.976562 14.480469 54.59375 5.175781 56.125 C 3.988281 56.320312 3.144531 57.367188 3.207031 58.582031 C 3.226562 58.898438 3.304688 59.21875 3.4375 59.53125 C 4.28125 61.511719 7.351562 62.875 13.074219 63.804688 C 13.175781 64.144531 13.289062 64.644531 13.351562 64.917969 C 13.46875 65.488281 13.601562 66.0625 13.773438 66.664062 C 13.945312 67.230469 14.523438 68.550781 16.335938 68.550781 C 16.886719 68.550781 17.488281 68.429688 18.132812 68.304688 C 19.082031 68.117188 20.269531 67.886719 21.792969 67.886719 C 22.644531 67.886719 23.519531 67.960938 24.398438 68.105469 C 26.023438 68.375 27.492188 69.417969 29.199219 70.617188 C 31.863281 72.507812 34.882812 74.636719 39.5625 74.636719 C 39.6875 74.636719 39.8125 74.632812 39.929688 74.625 C 40.101562 74.632812 40.273438 74.636719 40.449219 74.636719 C 45.132812 74.636719 48.148438 72.5 50.820312 70.617188 C 52.445312 69.460938 53.980469 68.382812 55.613281 68.105469 C 56.492188 67.960938 57.367188 67.886719 58.21875 67.886719 C 59.6875 67.886719 60.851562 68.074219 61.886719 68.28125 C 62.625 68.425781 63.210938 68.492188 63.757812 68.492188 C 64.96875 68.492188 65.898438 67.800781 66.238281 66.636719 C 66.414062 66.050781 66.539062 65.480469 66.664062 64.90625 C 66.710938 64.695312 66.832031 64.15625 66.9375 63.800781 C 72.664062 62.867188 75.730469 61.507812 76.570312 59.542969 C 76.707031 59.230469 76.78125 58.90625 76.804688 58.570312 C 76.867188 57.375 76.023438 56.324219 74.835938 56.125 Z M 74.835938 56.125 "/>
</g>
</svg>
